<mxfile host="app.diagrams.net" modified="2021-04-15T15:42:00.601Z" agent="5.0 (Windows NT 10.0; Win64; x64) AppleWebKit/537.36 (KHTML, like Gecko) Chrome/89.0.4389.114 Safari/537.36" etag="73_GfhKnKdFoSEd59Pc1" version="14.6.0" type="github">
  <diagram name="Page-1" id="c9db0220-8083-56f3-ca83-edcdcd058819">
    <mxGraphModel dx="1038" dy="556" grid="1" gridSize="10" guides="1" tooltips="1" connect="1" arrows="1" fold="1" page="1" pageScale="1.5" pageWidth="826" pageHeight="1169" background="#ffffff" math="0" shadow="0">
      <root>
        <mxCell id="0" style=";html=1;" />
        <mxCell id="1" style=";html=1;" parent="0" />
        <mxCell id="XdW4WZ278QtKB0jYS1sF-1" value="" style="html=1;shadow=0;dashed=0;shape=mxgraph.bootstrap.rect;fillColor=#222222;strokeColor=none;whiteSpace=wrap;rounded=0;fontSize=12;fontColor=#000000;align=center;" vertex="1" parent="1">
          <mxGeometry x="40" y="70" width="980" height="40" as="geometry" />
        </mxCell>
        <mxCell id="XdW4WZ278QtKB0jYS1sF-2" value="Startbildschirm" style="html=1;shadow=0;dashed=0;fillColor=none;strokeColor=none;shape=mxgraph.bootstrap.rect;fontColor=#999999;whiteSpace=wrap;" vertex="1" parent="XdW4WZ278QtKB0jYS1sF-1">
          <mxGeometry x="10" y="13.33" width="85.75" height="13.333333333333332" as="geometry" />
        </mxCell>
        <mxCell id="XdW4WZ278QtKB0jYS1sF-3" value="Log Out" style="html=1;shadow=0;dashed=0;fillColor=none;strokeColor=none;shape=mxgraph.bootstrap.rect;fontColor=#999999;whiteSpace=wrap;" vertex="1" parent="XdW4WZ278QtKB0jYS1sF-1">
          <mxGeometry x="894.25" y="13.33" width="85.75" height="13.333333333333332" as="geometry" />
        </mxCell>
        <mxCell id="XdW4WZ278QtKB0jYS1sF-4" value="&lt;ul&gt;&lt;li&gt;Value 1&lt;/li&gt;&lt;li&gt;Value 2&lt;/li&gt;&lt;li&gt;Value 3&lt;/li&gt;&lt;/ul&gt;" style="text;strokeColor=none;fillColor=none;html=1;whiteSpace=wrap;verticalAlign=middle;overflow=hidden;" vertex="1" parent="XdW4WZ278QtKB0jYS1sF-1">
          <mxGeometry x="220" y="13.333333333333332" width="100" height="26.666666666666664" as="geometry" />
        </mxCell>
        <mxCell id="XdW4WZ278QtKB0jYS1sF-5" value="" style="html=1;shadow=0;dashed=0;shape=mxgraph.bootstrap.rrect;rSize=5;strokeColor=#d6b656;;align=left;spacingLeft=10;fontSize=16;whiteSpace=wrap;rounded=0;fillColor=#FFFBE0;" vertex="1" parent="1">
          <mxGeometry x="240" y="110" width="780" height="90" as="geometry" />
        </mxCell>
        <mxCell id="XdW4WZ278QtKB0jYS1sF-6" value="&lt;ul style=&quot;font-size: 15px&quot;&gt;&lt;li&gt;Klavier ist kaputtgegangen, schon an die Schichtleitung gemeldet&lt;/li&gt;&lt;li&gt;Die Kaffeemaschine sollte entkalkt werden, leider nicht mehr geschafft&lt;/li&gt;&lt;li&gt;&lt;br&gt;&lt;/li&gt;&lt;/ul&gt;" style="text;strokeColor=none;fillColor=none;html=1;whiteSpace=wrap;verticalAlign=middle;overflow=hidden;" vertex="1" parent="1">
          <mxGeometry x="250" y="110" width="570" height="80" as="geometry" />
        </mxCell>
        <mxCell id="XdW4WZ278QtKB0jYS1sF-7" value="Bearbeiten" style="rounded=1;html=1;shadow=0;dashed=0;whiteSpace=wrap;fontSize=10;fillColor=#666666;align=center;strokeColor=#4D4D4D;fontColor=#ffffff;" vertex="1" parent="1">
          <mxGeometry x="914.5" y="183.12" width="105.5" height="16.88" as="geometry" />
        </mxCell>
        <mxCell id="XdW4WZ278QtKB0jYS1sF-8" value="" style="shape=table;html=1;whiteSpace=wrap;startSize=0;container=1;collapsible=0;childLayout=tableLayout;rowLines=1;rounded=0;sketch=0;" vertex="1" parent="1">
          <mxGeometry x="40" y="200" width="980" height="500" as="geometry" />
        </mxCell>
        <mxCell id="XdW4WZ278QtKB0jYS1sF-9" style="shape=partialRectangle;html=1;whiteSpace=wrap;collapsible=0;dropTarget=0;pointerEvents=0;fillColor=none;top=0;left=0;bottom=0;right=0;points=[[0,0.5],[1,0.5]];portConstraint=eastwest;" vertex="1" parent="XdW4WZ278QtKB0jYS1sF-8">
          <mxGeometry width="980" height="50" as="geometry" />
        </mxCell>
        <mxCell id="XdW4WZ278QtKB0jYS1sF-10" value="Lisa Lehmann" style="shape=partialRectangle;html=1;whiteSpace=wrap;connectable=0;fillColor=none;top=0;left=0;bottom=0;right=0;overflow=hidden;" vertex="1" parent="XdW4WZ278QtKB0jYS1sF-9">
          <mxGeometry width="140" height="50" as="geometry" />
        </mxCell>
        <mxCell id="XdW4WZ278QtKB0jYS1sF-11" value="Raum 1.01" style="shape=partialRectangle;html=1;whiteSpace=wrap;connectable=0;fillColor=none;top=0;left=0;bottom=0;right=0;overflow=hidden;" vertex="1" parent="XdW4WZ278QtKB0jYS1sF-9">
          <mxGeometry x="140" width="70" height="50" as="geometry" />
        </mxCell>
        <mxCell id="XdW4WZ278QtKB0jYS1sF-12" style="shape=partialRectangle;html=1;whiteSpace=wrap;connectable=0;fillColor=none;top=0;left=0;bottom=0;right=0;overflow=hidden;" vertex="1" parent="XdW4WZ278QtKB0jYS1sF-9">
          <mxGeometry x="210" width="770" height="50" as="geometry" />
        </mxCell>
        <mxCell id="XdW4WZ278QtKB0jYS1sF-13" style="shape=partialRectangle;html=1;whiteSpace=wrap;collapsible=0;dropTarget=0;pointerEvents=0;fillColor=none;top=0;left=0;bottom=0;right=0;points=[[0,0.5],[1,0.5]];portConstraint=eastwest;" vertex="1" parent="XdW4WZ278QtKB0jYS1sF-8">
          <mxGeometry y="50" width="980" height="50" as="geometry" />
        </mxCell>
        <mxCell id="XdW4WZ278QtKB0jYS1sF-14" value="Sabine Meier" style="shape=partialRectangle;html=1;whiteSpace=wrap;connectable=0;fillColor=none;top=0;left=0;bottom=0;right=0;overflow=hidden;" vertex="1" parent="XdW4WZ278QtKB0jYS1sF-13">
          <mxGeometry width="140" height="50" as="geometry" />
        </mxCell>
        <mxCell id="XdW4WZ278QtKB0jYS1sF-15" value="Raum 1.03" style="shape=partialRectangle;html=1;whiteSpace=wrap;connectable=0;fillColor=none;top=0;left=0;bottom=0;right=0;overflow=hidden;" vertex="1" parent="XdW4WZ278QtKB0jYS1sF-13">
          <mxGeometry x="140" width="70" height="50" as="geometry" />
        </mxCell>
        <mxCell id="XdW4WZ278QtKB0jYS1sF-16" style="shape=partialRectangle;html=1;whiteSpace=wrap;connectable=0;fillColor=none;top=0;left=0;bottom=0;right=0;overflow=hidden;" vertex="1" parent="XdW4WZ278QtKB0jYS1sF-13">
          <mxGeometry x="210" width="770" height="50" as="geometry" />
        </mxCell>
        <mxCell id="XdW4WZ278QtKB0jYS1sF-17" style="shape=partialRectangle;html=1;whiteSpace=wrap;collapsible=0;dropTarget=0;pointerEvents=0;fillColor=none;top=0;left=0;bottom=0;right=0;points=[[0,0.5],[1,0.5]];portConstraint=eastwest;" vertex="1" parent="XdW4WZ278QtKB0jYS1sF-8">
          <mxGeometry y="100" width="980" height="50" as="geometry" />
        </mxCell>
        <mxCell id="XdW4WZ278QtKB0jYS1sF-18" value="Swen WeiÃŸmueller" style="shape=partialRectangle;html=1;whiteSpace=wrap;connectable=0;fillColor=none;top=0;left=0;bottom=0;right=0;overflow=hidden;" vertex="1" parent="XdW4WZ278QtKB0jYS1sF-17">
          <mxGeometry width="140" height="50" as="geometry" />
        </mxCell>
        <mxCell id="XdW4WZ278QtKB0jYS1sF-19" value="&lt;span&gt;Raum 1.09&lt;/span&gt;" style="shape=partialRectangle;html=1;whiteSpace=wrap;connectable=0;fillColor=none;top=0;left=0;bottom=0;right=0;overflow=hidden;" vertex="1" parent="XdW4WZ278QtKB0jYS1sF-17">
          <mxGeometry x="140" width="70" height="50" as="geometry" />
        </mxCell>
        <mxCell id="XdW4WZ278QtKB0jYS1sF-20" style="shape=partialRectangle;html=1;whiteSpace=wrap;connectable=0;fillColor=none;top=0;left=0;bottom=0;right=0;overflow=hidden;" vertex="1" parent="XdW4WZ278QtKB0jYS1sF-17">
          <mxGeometry x="210" width="770" height="50" as="geometry" />
        </mxCell>
        <mxCell id="XdW4WZ278QtKB0jYS1sF-21" style="shape=partialRectangle;html=1;whiteSpace=wrap;collapsible=0;dropTarget=0;pointerEvents=0;fillColor=none;top=0;left=0;bottom=0;right=0;points=[[0,0.5],[1,0.5]];portConstraint=eastwest;" vertex="1" parent="XdW4WZ278QtKB0jYS1sF-8">
          <mxGeometry y="150" width="980" height="50" as="geometry" />
        </mxCell>
        <mxCell id="XdW4WZ278QtKB0jYS1sF-22" value="Eric Friedmann" style="shape=partialRectangle;html=1;whiteSpace=wrap;connectable=0;fillColor=none;top=0;left=0;bottom=0;right=0;overflow=hidden;" vertex="1" parent="XdW4WZ278QtKB0jYS1sF-21">
          <mxGeometry width="140" height="50" as="geometry" />
        </mxCell>
        <mxCell id="XdW4WZ278QtKB0jYS1sF-23" value="&lt;span&gt;Raum 1.04&lt;/span&gt;" style="shape=partialRectangle;html=1;whiteSpace=wrap;connectable=0;fillColor=none;top=0;left=0;bottom=0;right=0;overflow=hidden;" vertex="1" parent="XdW4WZ278QtKB0jYS1sF-21">
          <mxGeometry x="140" width="70" height="50" as="geometry" />
        </mxCell>
        <mxCell id="XdW4WZ278QtKB0jYS1sF-24" style="shape=partialRectangle;html=1;whiteSpace=wrap;connectable=0;fillColor=none;top=0;left=0;bottom=0;right=0;overflow=hidden;" vertex="1" parent="XdW4WZ278QtKB0jYS1sF-21">
          <mxGeometry x="210" width="770" height="50" as="geometry" />
        </mxCell>
        <mxCell id="XdW4WZ278QtKB0jYS1sF-25" style="shape=partialRectangle;html=1;whiteSpace=wrap;collapsible=0;dropTarget=0;pointerEvents=0;fillColor=none;top=0;left=0;bottom=0;right=0;points=[[0,0.5],[1,0.5]];portConstraint=eastwest;" vertex="1" parent="XdW4WZ278QtKB0jYS1sF-8">
          <mxGeometry y="200" width="980" height="50" as="geometry" />
        </mxCell>
        <mxCell id="XdW4WZ278QtKB0jYS1sF-26" value="Nicole Kaestner" style="shape=partialRectangle;html=1;whiteSpace=wrap;connectable=0;fillColor=none;top=0;left=0;bottom=0;right=0;overflow=hidden;" vertex="1" parent="XdW4WZ278QtKB0jYS1sF-25">
          <mxGeometry width="140" height="50" as="geometry" />
        </mxCell>
        <mxCell id="XdW4WZ278QtKB0jYS1sF-27" value="&lt;span&gt;Raum 1.02&lt;/span&gt;" style="shape=partialRectangle;html=1;whiteSpace=wrap;connectable=0;fillColor=none;top=0;left=0;bottom=0;right=0;overflow=hidden;" vertex="1" parent="XdW4WZ278QtKB0jYS1sF-25">
          <mxGeometry x="140" width="70" height="50" as="geometry" />
        </mxCell>
        <mxCell id="XdW4WZ278QtKB0jYS1sF-28" style="shape=partialRectangle;html=1;whiteSpace=wrap;connectable=0;fillColor=none;top=0;left=0;bottom=0;right=0;overflow=hidden;" vertex="1" parent="XdW4WZ278QtKB0jYS1sF-25">
          <mxGeometry x="210" width="770" height="50" as="geometry" />
        </mxCell>
        <mxCell id="XdW4WZ278QtKB0jYS1sF-29" style="shape=partialRectangle;html=1;whiteSpace=wrap;collapsible=0;dropTarget=0;pointerEvents=0;fillColor=none;top=0;left=0;bottom=0;right=0;points=[[0,0.5],[1,0.5]];portConstraint=eastwest;" vertex="1" parent="XdW4WZ278QtKB0jYS1sF-8">
          <mxGeometry y="250" width="980" height="50" as="geometry" />
        </mxCell>
        <mxCell id="XdW4WZ278QtKB0jYS1sF-30" value="Sabrina Loewe" style="shape=partialRectangle;html=1;whiteSpace=wrap;connectable=0;fillColor=none;top=0;left=0;bottom=0;right=0;overflow=hidden;" vertex="1" parent="XdW4WZ278QtKB0jYS1sF-29">
          <mxGeometry width="140" height="50" as="geometry" />
        </mxCell>
        <mxCell id="XdW4WZ278QtKB0jYS1sF-31" value="&lt;span&gt;Raum 1.07&lt;/span&gt;" style="shape=partialRectangle;html=1;whiteSpace=wrap;connectable=0;fillColor=none;top=0;left=0;bottom=0;right=0;overflow=hidden;" vertex="1" parent="XdW4WZ278QtKB0jYS1sF-29">
          <mxGeometry x="140" width="70" height="50" as="geometry" />
        </mxCell>
        <mxCell id="XdW4WZ278QtKB0jYS1sF-32" style="shape=partialRectangle;html=1;whiteSpace=wrap;connectable=0;fillColor=none;top=0;left=0;bottom=0;right=0;overflow=hidden;" vertex="1" parent="XdW4WZ278QtKB0jYS1sF-29">
          <mxGeometry x="210" width="770" height="50" as="geometry" />
        </mxCell>
        <mxCell id="XdW4WZ278QtKB0jYS1sF-33" style="shape=partialRectangle;html=1;whiteSpace=wrap;collapsible=0;dropTarget=0;pointerEvents=0;fillColor=none;top=0;left=0;bottom=0;right=0;points=[[0,0.5],[1,0.5]];portConstraint=eastwest;" vertex="1" parent="XdW4WZ278QtKB0jYS1sF-8">
          <mxGeometry y="300" width="980" height="50" as="geometry" />
        </mxCell>
        <mxCell id="XdW4WZ278QtKB0jYS1sF-34" value="Frank Fuchs" style="shape=partialRectangle;html=1;whiteSpace=wrap;connectable=0;fillColor=none;top=0;left=0;bottom=0;right=0;overflow=hidden;" vertex="1" parent="XdW4WZ278QtKB0jYS1sF-33">
          <mxGeometry width="140" height="50" as="geometry" />
        </mxCell>
        <mxCell id="XdW4WZ278QtKB0jYS1sF-35" value="&lt;span&gt;Raum 1.10&lt;/span&gt;" style="shape=partialRectangle;html=1;whiteSpace=wrap;connectable=0;fillColor=none;top=0;left=0;bottom=0;right=0;overflow=hidden;" vertex="1" parent="XdW4WZ278QtKB0jYS1sF-33">
          <mxGeometry x="140" width="70" height="50" as="geometry" />
        </mxCell>
        <mxCell id="XdW4WZ278QtKB0jYS1sF-36" style="shape=partialRectangle;html=1;whiteSpace=wrap;connectable=0;fillColor=none;top=0;left=0;bottom=0;right=0;overflow=hidden;" vertex="1" parent="XdW4WZ278QtKB0jYS1sF-33">
          <mxGeometry x="210" width="770" height="50" as="geometry" />
        </mxCell>
        <mxCell id="XdW4WZ278QtKB0jYS1sF-37" value="" style="shape=partialRectangle;html=1;whiteSpace=wrap;collapsible=0;dropTarget=0;pointerEvents=0;fillColor=none;top=0;left=0;bottom=0;right=0;points=[[0,0.5],[1,0.5]];portConstraint=eastwest;" vertex="1" parent="XdW4WZ278QtKB0jYS1sF-8">
          <mxGeometry y="350" width="980" height="50" as="geometry" />
        </mxCell>
        <mxCell id="XdW4WZ278QtKB0jYS1sF-38" value="Karolin Freud" style="shape=partialRectangle;html=1;whiteSpace=wrap;connectable=0;fillColor=none;top=0;left=0;bottom=0;right=0;overflow=hidden;" vertex="1" parent="XdW4WZ278QtKB0jYS1sF-37">
          <mxGeometry width="140" height="50" as="geometry" />
        </mxCell>
        <mxCell id="XdW4WZ278QtKB0jYS1sF-39" value="&lt;span&gt;Raum 1.05&lt;/span&gt;" style="shape=partialRectangle;html=1;whiteSpace=wrap;connectable=0;fillColor=none;top=0;left=0;bottom=0;right=0;overflow=hidden;" vertex="1" parent="XdW4WZ278QtKB0jYS1sF-37">
          <mxGeometry x="140" width="70" height="50" as="geometry" />
        </mxCell>
        <mxCell id="XdW4WZ278QtKB0jYS1sF-40" value="" style="shape=partialRectangle;html=1;whiteSpace=wrap;connectable=0;fillColor=none;top=0;left=0;bottom=0;right=0;overflow=hidden;" vertex="1" parent="XdW4WZ278QtKB0jYS1sF-37">
          <mxGeometry x="210" width="770" height="50" as="geometry" />
        </mxCell>
        <mxCell id="XdW4WZ278QtKB0jYS1sF-41" value="" style="shape=partialRectangle;html=1;whiteSpace=wrap;collapsible=0;dropTarget=0;pointerEvents=0;fillColor=none;top=0;left=0;bottom=0;right=0;points=[[0,0.5],[1,0.5]];portConstraint=eastwest;" vertex="1" parent="XdW4WZ278QtKB0jYS1sF-8">
          <mxGeometry y="400" width="980" height="50" as="geometry" />
        </mxCell>
        <mxCell id="XdW4WZ278QtKB0jYS1sF-42" value="Ulrich Decker" style="shape=partialRectangle;html=1;whiteSpace=wrap;connectable=0;fillColor=none;top=0;left=0;bottom=0;right=0;overflow=hidden;" vertex="1" parent="XdW4WZ278QtKB0jYS1sF-41">
          <mxGeometry width="140" height="50" as="geometry" />
        </mxCell>
        <mxCell id="XdW4WZ278QtKB0jYS1sF-43" value="&lt;span&gt;Raum 1.06&lt;/span&gt;" style="shape=partialRectangle;html=1;whiteSpace=wrap;connectable=0;fillColor=none;top=0;left=0;bottom=0;right=0;overflow=hidden;" vertex="1" parent="XdW4WZ278QtKB0jYS1sF-41">
          <mxGeometry x="140" width="70" height="50" as="geometry" />
        </mxCell>
        <mxCell id="XdW4WZ278QtKB0jYS1sF-44" value="" style="shape=partialRectangle;html=1;whiteSpace=wrap;connectable=0;fillColor=none;top=0;left=0;bottom=0;right=0;overflow=hidden;" vertex="1" parent="XdW4WZ278QtKB0jYS1sF-41">
          <mxGeometry x="210" width="770" height="50" as="geometry" />
        </mxCell>
        <mxCell id="XdW4WZ278QtKB0jYS1sF-45" value="" style="shape=partialRectangle;html=1;whiteSpace=wrap;collapsible=0;dropTarget=0;pointerEvents=0;fillColor=none;top=0;left=0;bottom=0;right=0;points=[[0,0.5],[1,0.5]];portConstraint=eastwest;" vertex="1" parent="XdW4WZ278QtKB0jYS1sF-8">
          <mxGeometry y="450" width="980" height="50" as="geometry" />
        </mxCell>
        <mxCell id="XdW4WZ278QtKB0jYS1sF-46" value="Vanessa Herzog" style="shape=partialRectangle;html=1;whiteSpace=wrap;connectable=0;fillColor=none;top=0;left=0;bottom=0;right=0;overflow=hidden;" vertex="1" parent="XdW4WZ278QtKB0jYS1sF-45">
          <mxGeometry width="140" height="50" as="geometry" />
        </mxCell>
        <mxCell id="XdW4WZ278QtKB0jYS1sF-47" value="Raum 1.08" style="shape=partialRectangle;html=1;whiteSpace=wrap;connectable=0;fillColor=none;top=0;left=0;bottom=0;right=0;overflow=hidden;" vertex="1" parent="XdW4WZ278QtKB0jYS1sF-45">
          <mxGeometry x="140" width="70" height="50" as="geometry" />
        </mxCell>
        <mxCell id="XdW4WZ278QtKB0jYS1sF-48" value="" style="shape=partialRectangle;html=1;whiteSpace=wrap;connectable=0;fillColor=none;top=0;left=0;bottom=0;right=0;overflow=hidden;" vertex="1" parent="XdW4WZ278QtKB0jYS1sF-45">
          <mxGeometry x="210" width="770" height="50" as="geometry" />
        </mxCell>
        <mxCell id="XdW4WZ278QtKB0jYS1sF-49" value="&lt;font style=&quot;font-size: 26px&quot;&gt;+&lt;/font&gt;" style="rounded=1;html=1;shadow=0;dashed=0;whiteSpace=wrap;fontSize=10;fillColor=#666666;align=center;strokeColor=#4D4D4D;fontColor=#ffffff;sketch=0;" vertex="1" parent="1">
          <mxGeometry x="970" y="210" width="40" height="30" as="geometry" />
        </mxCell>
        <mxCell id="XdW4WZ278QtKB0jYS1sF-50" value="&lt;font style=&quot;font-size: 26px&quot;&gt;+&lt;/font&gt;" style="rounded=1;html=1;shadow=0;dashed=0;whiteSpace=wrap;fontSize=10;fillColor=#666666;align=center;strokeColor=#4D4D4D;fontColor=#ffffff;sketch=0;" vertex="1" parent="1">
          <mxGeometry x="970" y="260" width="40" height="30" as="geometry" />
        </mxCell>
        <mxCell id="XdW4WZ278QtKB0jYS1sF-51" value="&lt;font style=&quot;font-size: 26px&quot;&gt;+&lt;/font&gt;" style="rounded=1;html=1;shadow=0;dashed=0;whiteSpace=wrap;fontSize=10;fillColor=#666666;align=center;strokeColor=#4D4D4D;fontColor=#ffffff;sketch=0;" vertex="1" parent="1">
          <mxGeometry x="970" y="310" width="40" height="30" as="geometry" />
        </mxCell>
        <mxCell id="XdW4WZ278QtKB0jYS1sF-52" value="&lt;font style=&quot;font-size: 26px&quot;&gt;+&lt;/font&gt;" style="rounded=1;html=1;shadow=0;dashed=0;whiteSpace=wrap;fontSize=10;fillColor=#666666;align=center;strokeColor=#4D4D4D;fontColor=#ffffff;sketch=0;" vertex="1" parent="1">
          <mxGeometry x="970" y="360" width="40" height="30" as="geometry" />
        </mxCell>
        <mxCell id="XdW4WZ278QtKB0jYS1sF-53" value="&lt;font style=&quot;font-size: 26px&quot;&gt;+&lt;/font&gt;" style="rounded=1;html=1;shadow=0;dashed=0;whiteSpace=wrap;fontSize=10;fillColor=#666666;align=center;strokeColor=#4D4D4D;fontColor=#ffffff;sketch=0;" vertex="1" parent="1">
          <mxGeometry x="970" y="410" width="40" height="30" as="geometry" />
        </mxCell>
        <mxCell id="XdW4WZ278QtKB0jYS1sF-54" value="&lt;font style=&quot;font-size: 26px&quot;&gt;+&lt;/font&gt;" style="rounded=1;html=1;shadow=0;dashed=0;whiteSpace=wrap;fontSize=10;fillColor=#666666;align=center;strokeColor=#4D4D4D;fontColor=#ffffff;sketch=0;" vertex="1" parent="1">
          <mxGeometry x="970" y="460" width="40" height="30" as="geometry" />
        </mxCell>
        <mxCell id="XdW4WZ278QtKB0jYS1sF-55" value="&lt;font style=&quot;font-size: 26px&quot;&gt;+&lt;/font&gt;" style="rounded=1;html=1;shadow=0;dashed=0;whiteSpace=wrap;fontSize=10;fillColor=#666666;align=center;strokeColor=#4D4D4D;fontColor=#ffffff;sketch=0;" vertex="1" parent="1">
          <mxGeometry x="970" y="510" width="40" height="30" as="geometry" />
        </mxCell>
        <mxCell id="XdW4WZ278QtKB0jYS1sF-56" value="&lt;font style=&quot;font-size: 26px&quot;&gt;+&lt;/font&gt;" style="rounded=1;html=1;shadow=0;dashed=0;whiteSpace=wrap;fontSize=10;fillColor=#666666;align=center;strokeColor=#4D4D4D;fontColor=#ffffff;sketch=0;" vertex="1" parent="1">
          <mxGeometry x="970" y="560" width="40" height="30" as="geometry" />
        </mxCell>
        <mxCell id="XdW4WZ278QtKB0jYS1sF-57" value="&lt;font style=&quot;font-size: 26px&quot;&gt;+&lt;/font&gt;" style="rounded=1;html=1;shadow=0;dashed=0;whiteSpace=wrap;fontSize=10;fillColor=#666666;align=center;strokeColor=#4D4D4D;fontColor=#ffffff;sketch=0;" vertex="1" parent="1">
          <mxGeometry x="970" y="610" width="40" height="30" as="geometry" />
        </mxCell>
        <mxCell id="XdW4WZ278QtKB0jYS1sF-58" value="&lt;font style=&quot;font-size: 26px&quot;&gt;+&lt;/font&gt;" style="rounded=1;html=1;shadow=0;dashed=0;whiteSpace=wrap;fontSize=10;fillColor=#666666;align=center;strokeColor=#4D4D4D;fontColor=#ffffff;sketch=0;" vertex="1" parent="1">
          <mxGeometry x="970" y="660" width="40" height="30" as="geometry" />
        </mxCell>
        <mxCell id="XdW4WZ278QtKB0jYS1sF-59" value="&lt;ul style=&quot;font-size: 13px&quot;&gt;&lt;li&gt;Sohn war heute ausnahmsweise nicht zu Besuch und sie ist deshalb heute sehr niedergeschlagen&amp;nbsp;&lt;/li&gt;&lt;li&gt;&lt;br&gt;&lt;/li&gt;&lt;/ul&gt;" style="text;strokeColor=none;fillColor=none;html=1;whiteSpace=wrap;verticalAlign=middle;overflow=hidden;rounded=0;sketch=0;spacing=0;" vertex="1" parent="1">
          <mxGeometry x="250" y="200" width="690" height="50" as="geometry" />
        </mxCell>
        <mxCell id="XdW4WZ278QtKB0jYS1sF-60" value="" style="rounded=0;whiteSpace=wrap;html=1;fillColor=#FFFBE0;" vertex="1" parent="1">
          <mxGeometry x="40" y="110" width="210" height="90" as="geometry" />
        </mxCell>
        <mxCell id="XdW4WZ278QtKB0jYS1sF-61" value="FrÃ¼hschicht" style="rounded=0;html=1;align=left;fontSize=12;spacingLeft=10;glass=0;sketch=0;shadow=0;" vertex="1" parent="1">
          <mxGeometry x="50" y="130" width="100" height="20" as="geometry" />
        </mxCell>
        <mxCell id="XdW4WZ278QtKB0jYS1sF-62" value="" style="shape=triangle;direction=south;fillColor=#596780;strokeColor=none;html=1" vertex="1" parent="XdW4WZ278QtKB0jYS1sF-61">
          <mxGeometry x="1" y="0.5" width="12" height="6" relative="1" as="geometry">
            <mxPoint x="-20" y="-3" as="offset" />
          </mxGeometry>
        </mxCell>
        <mxCell id="XdW4WZ278QtKB0jYS1sF-63" value="25.04.2021" style="rounded=1;html=1;align=left;fontSize=12;spacingLeft=10" vertex="1" parent="1">
          <mxGeometry x="50" y="162.37" width="100" height="20.75" as="geometry" />
        </mxCell>
        <mxCell id="XdW4WZ278QtKB0jYS1sF-64" value="" style="shape=triangle;direction=south;fillColor=#596780;strokeColor=none;html=1" vertex="1" parent="XdW4WZ278QtKB0jYS1sF-63">
          <mxGeometry x="1" y="0.5" width="12" height="6" relative="1" as="geometry">
            <mxPoint x="-20" y="-3" as="offset" />
          </mxGeometry>
        </mxCell>
        <mxCell id="XdW4WZ278QtKB0jYS1sF-65" value="&lt;ul style=&quot;font-size: 13px&quot;&gt;&lt;li&gt;&amp;nbsp;&lt;/li&gt;&lt;li&gt;&lt;br&gt;&lt;/li&gt;&lt;/ul&gt;" style="text;strokeColor=none;fillColor=none;html=1;whiteSpace=wrap;verticalAlign=middle;overflow=hidden;rounded=0;sketch=0;spacing=0;" vertex="1" parent="1">
          <mxGeometry x="250" y="250" width="690" height="50" as="geometry" />
        </mxCell>
        <mxCell id="XdW4WZ278QtKB0jYS1sF-66" value="&lt;ul style=&quot;font-size: 13px&quot;&gt;&lt;li&gt;&lt;br&gt;&lt;/li&gt;&lt;li&gt;&lt;br&gt;&lt;/li&gt;&lt;/ul&gt;" style="text;strokeColor=none;fillColor=none;html=1;whiteSpace=wrap;verticalAlign=middle;overflow=hidden;rounded=0;sketch=0;spacing=0;" vertex="1" parent="1">
          <mxGeometry x="250" y="300" width="690" height="50" as="geometry" />
        </mxCell>
        <mxCell id="XdW4WZ278QtKB0jYS1sF-67" value="&lt;ul style=&quot;font-size: 13px&quot;&gt;&lt;li&gt;&amp;nbsp;&lt;/li&gt;&lt;li&gt;&lt;br&gt;&lt;/li&gt;&lt;/ul&gt;" style="text;strokeColor=none;fillColor=none;html=1;whiteSpace=wrap;verticalAlign=middle;overflow=hidden;rounded=0;sketch=0;spacing=0;" vertex="1" parent="1">
          <mxGeometry x="250" y="350" width="690" height="50" as="geometry" />
        </mxCell>
        <mxCell id="XdW4WZ278QtKB0jYS1sF-68" value="&lt;ul style=&quot;font-size: 13px&quot;&gt;&lt;li&gt;&amp;nbsp;&lt;/li&gt;&lt;li&gt;&lt;br&gt;&lt;/li&gt;&lt;/ul&gt;" style="text;strokeColor=none;fillColor=none;html=1;whiteSpace=wrap;verticalAlign=middle;overflow=hidden;rounded=0;sketch=0;spacing=0;" vertex="1" parent="1">
          <mxGeometry x="250" y="400" width="690" height="50" as="geometry" />
        </mxCell>
        <mxCell id="XdW4WZ278QtKB0jYS1sF-69" value="&lt;ul style=&quot;font-size: 13px&quot;&gt;&lt;li&gt;&amp;nbsp;&lt;/li&gt;&lt;li&gt;&lt;br&gt;&lt;/li&gt;&lt;/ul&gt;" style="text;strokeColor=none;fillColor=none;html=1;whiteSpace=wrap;verticalAlign=middle;overflow=hidden;rounded=0;sketch=0;spacing=0;" vertex="1" parent="1">
          <mxGeometry x="250" y="450" width="690" height="50" as="geometry" />
        </mxCell>
        <mxCell id="XdW4WZ278QtKB0jYS1sF-70" value="&lt;ul style=&quot;font-size: 13px&quot;&gt;&lt;li&gt;&amp;nbsp;&lt;/li&gt;&lt;li&gt;&lt;br&gt;&lt;/li&gt;&lt;/ul&gt;" style="text;strokeColor=none;fillColor=none;html=1;whiteSpace=wrap;verticalAlign=middle;overflow=hidden;rounded=0;sketch=0;spacing=0;" vertex="1" parent="1">
          <mxGeometry x="250" y="500" width="690" height="50" as="geometry" />
        </mxCell>
        <mxCell id="XdW4WZ278QtKB0jYS1sF-71" value="&lt;ul style=&quot;font-size: 13px&quot;&gt;&lt;li&gt;&amp;nbsp;&lt;/li&gt;&lt;li&gt;&lt;br&gt;&lt;/li&gt;&lt;/ul&gt;" style="text;strokeColor=none;fillColor=none;html=1;whiteSpace=wrap;verticalAlign=middle;overflow=hidden;rounded=0;sketch=0;spacing=0;" vertex="1" parent="1">
          <mxGeometry x="250" y="550" width="690" height="50" as="geometry" />
        </mxCell>
        <mxCell id="XdW4WZ278QtKB0jYS1sF-72" value="&lt;ul style=&quot;font-size: 13px&quot;&gt;&lt;li&gt;&amp;nbsp;&lt;/li&gt;&lt;li&gt;&lt;br&gt;&lt;/li&gt;&lt;/ul&gt;" style="text;strokeColor=none;fillColor=none;html=1;whiteSpace=wrap;verticalAlign=middle;overflow=hidden;rounded=0;sketch=0;spacing=0;" vertex="1" parent="1">
          <mxGeometry x="250" y="600" width="690" height="50" as="geometry" />
        </mxCell>
        <mxCell id="XdW4WZ278QtKB0jYS1sF-73" value="&lt;ul style=&quot;font-size: 13px&quot;&gt;&lt;li&gt;&amp;nbsp;&lt;/li&gt;&lt;li&gt;&lt;br&gt;&lt;/li&gt;&lt;/ul&gt;" style="text;strokeColor=none;fillColor=none;html=1;whiteSpace=wrap;verticalAlign=middle;overflow=hidden;rounded=0;sketch=0;spacing=0;" vertex="1" parent="1">
          <mxGeometry x="250" y="650" width="690" height="50" as="geometry" />
        </mxCell>
      </root>
    </mxGraphModel>
  </diagram>
</mxfile>
